G04 (created by PCBNEW (2013-07-07 BZR 4022)-stable) date 25/03/2015 14:16:09*
%MOIN*%
G04 Gerber Fmt 3.4, Leading zero omitted, Abs format*
%FSLAX34Y34*%
G01*
G70*
G90*
G04 APERTURE LIST*
%ADD10C,0.00590551*%
%ADD11C,0.00787402*%
%ADD12C,0.0059*%
%ADD13C,0.0001*%
%ADD14C,0.0079*%
G04 APERTURE END LIST*
G54D10*
G54D11*
X59111Y-38663D02*
X59205Y-39056D01*
X59280Y-38775D01*
X59355Y-39056D01*
X59448Y-38663D01*
X59673Y-38663D02*
X59711Y-38663D01*
X59748Y-38682D01*
X59767Y-38700D01*
X59786Y-38738D01*
X59805Y-38813D01*
X59805Y-38907D01*
X59786Y-38982D01*
X59767Y-39019D01*
X59748Y-39038D01*
X59711Y-39056D01*
X59673Y-39056D01*
X59636Y-39038D01*
X59617Y-39019D01*
X59598Y-38982D01*
X59580Y-38907D01*
X59580Y-38813D01*
X59598Y-38738D01*
X59617Y-38700D01*
X59636Y-38682D01*
X59673Y-38663D01*
X60048Y-38663D02*
X60086Y-38663D01*
X60123Y-38682D01*
X60142Y-38700D01*
X60161Y-38738D01*
X60179Y-38813D01*
X60179Y-38907D01*
X60161Y-38982D01*
X60142Y-39019D01*
X60123Y-39038D01*
X60086Y-39056D01*
X60048Y-39056D01*
X60011Y-39038D01*
X59992Y-39019D01*
X59973Y-38982D01*
X59955Y-38907D01*
X59955Y-38813D01*
X59973Y-38738D01*
X59992Y-38700D01*
X60011Y-38682D01*
X60048Y-38663D01*
X60554Y-39056D02*
X60329Y-39056D01*
X60442Y-39056D02*
X60442Y-38663D01*
X60404Y-38719D01*
X60367Y-38757D01*
X60329Y-38775D01*
X60723Y-38907D02*
X61023Y-38907D01*
X61286Y-38663D02*
X61323Y-38663D01*
X61361Y-38682D01*
X61379Y-38700D01*
X61398Y-38738D01*
X61417Y-38813D01*
X61417Y-38907D01*
X61398Y-38982D01*
X61379Y-39019D01*
X61361Y-39038D01*
X61323Y-39056D01*
X61286Y-39056D01*
X61248Y-39038D01*
X61229Y-39019D01*
X61211Y-38982D01*
X61192Y-38907D01*
X61192Y-38813D01*
X61211Y-38738D01*
X61229Y-38700D01*
X61248Y-38682D01*
X61286Y-38663D01*
X59148Y-39293D02*
X59148Y-39611D01*
X59167Y-39649D01*
X59186Y-39668D01*
X59223Y-39686D01*
X59298Y-39686D01*
X59336Y-39668D01*
X59355Y-39649D01*
X59373Y-39611D01*
X59373Y-39293D01*
X59542Y-39668D02*
X59598Y-39686D01*
X59692Y-39686D01*
X59730Y-39668D01*
X59748Y-39649D01*
X59767Y-39611D01*
X59767Y-39574D01*
X59748Y-39536D01*
X59730Y-39518D01*
X59692Y-39499D01*
X59617Y-39480D01*
X59580Y-39461D01*
X59561Y-39443D01*
X59542Y-39405D01*
X59542Y-39368D01*
X59561Y-39330D01*
X59580Y-39311D01*
X59617Y-39293D01*
X59711Y-39293D01*
X59767Y-39311D01*
X60067Y-39480D02*
X60123Y-39499D01*
X60142Y-39518D01*
X60161Y-39555D01*
X60161Y-39611D01*
X60142Y-39649D01*
X60123Y-39668D01*
X60086Y-39686D01*
X59936Y-39686D01*
X59936Y-39293D01*
X60067Y-39293D01*
X60104Y-39311D01*
X60123Y-39330D01*
X60142Y-39368D01*
X60142Y-39405D01*
X60123Y-39443D01*
X60104Y-39461D01*
X60067Y-39480D01*
X59936Y-39480D01*
X60311Y-39330D02*
X60329Y-39311D01*
X60367Y-39293D01*
X60461Y-39293D01*
X60498Y-39311D01*
X60517Y-39330D01*
X60536Y-39368D01*
X60536Y-39405D01*
X60517Y-39461D01*
X60292Y-39686D01*
X60536Y-39686D01*
X60667Y-39293D02*
X60761Y-39686D01*
X60836Y-39405D01*
X60911Y-39686D01*
X61004Y-39293D01*
X61211Y-39686D02*
X61173Y-39668D01*
X61154Y-39649D01*
X61136Y-39611D01*
X61136Y-39499D01*
X61154Y-39461D01*
X61173Y-39443D01*
X61211Y-39424D01*
X61267Y-39424D01*
X61304Y-39443D01*
X61323Y-39461D01*
X61342Y-39499D01*
X61342Y-39611D01*
X61323Y-39649D01*
X61304Y-39668D01*
X61267Y-39686D01*
X61211Y-39686D01*
X61511Y-39686D02*
X61511Y-39424D01*
X61511Y-39499D02*
X61529Y-39461D01*
X61548Y-39443D01*
X61586Y-39424D01*
X61623Y-39424D01*
X61811Y-39686D02*
X61773Y-39668D01*
X61754Y-39630D01*
X61754Y-39293D01*
X62129Y-39686D02*
X62129Y-39293D01*
X62129Y-39668D02*
X62092Y-39686D01*
X62017Y-39686D01*
X61979Y-39668D01*
X61961Y-39649D01*
X61942Y-39611D01*
X61942Y-39499D01*
X61961Y-39461D01*
X61979Y-39443D01*
X62017Y-39424D01*
X62092Y-39424D01*
X62129Y-39443D01*
X59373Y-40279D02*
X59355Y-40298D01*
X59298Y-40316D01*
X59261Y-40316D01*
X59205Y-40298D01*
X59167Y-40260D01*
X59148Y-40223D01*
X59130Y-40148D01*
X59130Y-40091D01*
X59148Y-40016D01*
X59167Y-39979D01*
X59205Y-39941D01*
X59261Y-39923D01*
X59298Y-39923D01*
X59355Y-39941D01*
X59373Y-39960D01*
X59767Y-40279D02*
X59748Y-40298D01*
X59692Y-40316D01*
X59655Y-40316D01*
X59598Y-40298D01*
X59561Y-40260D01*
X59542Y-40223D01*
X59523Y-40148D01*
X59523Y-40091D01*
X59542Y-40016D01*
X59561Y-39979D01*
X59598Y-39941D01*
X59655Y-39923D01*
X59692Y-39923D01*
X59748Y-39941D01*
X59767Y-39960D01*
X60404Y-40054D02*
X60404Y-40316D01*
X60311Y-39904D02*
X60217Y-40185D01*
X60461Y-40185D01*
X60611Y-40279D02*
X60629Y-40298D01*
X60611Y-40316D01*
X60592Y-40298D01*
X60611Y-40279D01*
X60611Y-40316D01*
X60873Y-39923D02*
X60911Y-39923D01*
X60948Y-39941D01*
X60967Y-39960D01*
X60986Y-39998D01*
X61004Y-40073D01*
X61004Y-40166D01*
X60986Y-40241D01*
X60967Y-40279D01*
X60948Y-40298D01*
X60911Y-40316D01*
X60873Y-40316D01*
X60836Y-40298D01*
X60817Y-40279D01*
X60798Y-40241D01*
X60779Y-40166D01*
X60779Y-40073D01*
X60798Y-39998D01*
X60817Y-39960D01*
X60836Y-39941D01*
X60873Y-39923D01*
X61604Y-40110D02*
X61661Y-40129D01*
X61679Y-40148D01*
X61698Y-40185D01*
X61698Y-40241D01*
X61679Y-40279D01*
X61661Y-40298D01*
X61623Y-40316D01*
X61473Y-40316D01*
X61473Y-39923D01*
X61604Y-39923D01*
X61642Y-39941D01*
X61661Y-39960D01*
X61679Y-39998D01*
X61679Y-40035D01*
X61661Y-40073D01*
X61642Y-40091D01*
X61604Y-40110D01*
X61473Y-40110D01*
X61942Y-40129D02*
X61942Y-40316D01*
X61811Y-39923D02*
X61942Y-40129D01*
X62073Y-39923D01*
X62204Y-40166D02*
X62504Y-40166D01*
X62673Y-40298D02*
X62729Y-40316D01*
X62823Y-40316D01*
X62860Y-40298D01*
X62879Y-40279D01*
X62898Y-40241D01*
X62898Y-40204D01*
X62879Y-40166D01*
X62860Y-40148D01*
X62823Y-40129D01*
X62748Y-40110D01*
X62710Y-40091D01*
X62692Y-40073D01*
X62673Y-40035D01*
X62673Y-39998D01*
X62692Y-39960D01*
X62710Y-39941D01*
X62748Y-39923D01*
X62842Y-39923D01*
X62898Y-39941D01*
X63048Y-40204D02*
X63235Y-40204D01*
X63010Y-40316D02*
X63142Y-39923D01*
X63273Y-40316D01*
X63728Y-37433D02*
X63785Y-37452D01*
X63803Y-37470D01*
X63822Y-37508D01*
X63822Y-37564D01*
X63803Y-37602D01*
X63785Y-37620D01*
X63747Y-37639D01*
X63597Y-37639D01*
X63597Y-37245D01*
X63728Y-37245D01*
X63766Y-37264D01*
X63785Y-37283D01*
X63803Y-37320D01*
X63803Y-37358D01*
X63785Y-37395D01*
X63766Y-37414D01*
X63728Y-37433D01*
X63597Y-37433D01*
X63607Y-35479D02*
X63794Y-35479D01*
X63569Y-35592D02*
X63700Y-35198D01*
X63832Y-35592D01*
G54D12*
X57951Y-34933D02*
X60001Y-34933D01*
X60001Y-34933D02*
X60001Y-35908D01*
X60001Y-35908D02*
X57951Y-35908D01*
X57951Y-35908D02*
X57951Y-34933D01*
X55746Y-40444D02*
X57796Y-40444D01*
X57796Y-40444D02*
X57796Y-41419D01*
X57796Y-41419D02*
X55746Y-41419D01*
X55746Y-41419D02*
X55746Y-40444D01*
X55746Y-34933D02*
X57796Y-34933D01*
X57796Y-34933D02*
X57796Y-35908D01*
X57796Y-35908D02*
X55746Y-35908D01*
X55746Y-35908D02*
X55746Y-34933D01*
X53305Y-38240D02*
X55355Y-38240D01*
X55355Y-38240D02*
X55355Y-39215D01*
X55355Y-39215D02*
X53305Y-39215D01*
X53305Y-39215D02*
X53305Y-38240D01*
X53305Y-36035D02*
X55355Y-36035D01*
X55355Y-36035D02*
X55355Y-37010D01*
X55355Y-37010D02*
X53305Y-37010D01*
X53305Y-37010D02*
X53305Y-36035D01*
X53305Y-39342D02*
X55355Y-39342D01*
X55355Y-39342D02*
X55355Y-40317D01*
X55355Y-40317D02*
X53305Y-40317D01*
X53305Y-40317D02*
X53305Y-39342D01*
X53305Y-37137D02*
X55355Y-37137D01*
X55355Y-37137D02*
X55355Y-38112D01*
X55355Y-38112D02*
X53305Y-38112D01*
X53305Y-38112D02*
X53305Y-37137D01*
X62206Y-35933D02*
X60156Y-35933D01*
X60156Y-35933D02*
X60156Y-34958D01*
X60156Y-34958D02*
X62206Y-34958D01*
X62206Y-34958D02*
X62206Y-35933D01*
X62206Y-37035D02*
X60156Y-37035D01*
X60156Y-37035D02*
X60156Y-36060D01*
X60156Y-36060D02*
X62206Y-36060D01*
X62206Y-36060D02*
X62206Y-37035D01*
X60001Y-41444D02*
X57951Y-41444D01*
X57951Y-41444D02*
X57951Y-40469D01*
X57951Y-40469D02*
X60001Y-40469D01*
X60001Y-40469D02*
X60001Y-41444D01*
X69606Y-37125D02*
X70000Y-37125D01*
X70000Y-39094D02*
X69606Y-39094D01*
X70000Y-36338D02*
X70000Y-36141D01*
X70000Y-40078D02*
X70000Y-39881D01*
X67834Y-40078D02*
X67834Y-36141D01*
X67834Y-40078D02*
X70000Y-40078D01*
X67834Y-36141D02*
X70000Y-36141D01*
X69606Y-39094D02*
X69606Y-37125D01*
X70000Y-36338D02*
X70000Y-37125D01*
X70000Y-39881D02*
X70000Y-39094D01*
G54D10*
X59109Y-37126D02*
X58952Y-36968D01*
X58952Y-36968D02*
X59109Y-36811D01*
X59109Y-36811D02*
X59109Y-37126D01*
X58834Y-38150D02*
X58558Y-38150D01*
X58558Y-38150D02*
X58558Y-37362D01*
X58834Y-38937D02*
X56865Y-38937D01*
X56865Y-38937D02*
X56865Y-37362D01*
X56865Y-37362D02*
X58834Y-37362D01*
X58834Y-37362D02*
X58834Y-38937D01*
X54566Y-40472D02*
X54566Y-41417D01*
G54D12*
X53305Y-40444D02*
X55355Y-40444D01*
X55355Y-40444D02*
X55355Y-41419D01*
X55355Y-41419D02*
X53305Y-41419D01*
X53305Y-41419D02*
X53305Y-40444D01*
G54D10*
X54566Y-34960D02*
X54566Y-35905D01*
G54D12*
X53305Y-34933D02*
X55355Y-34933D01*
X55355Y-34933D02*
X55355Y-35908D01*
X55355Y-35908D02*
X53305Y-35908D01*
X53305Y-35908D02*
X53305Y-34933D01*
G54D10*
X61181Y-41417D02*
X61181Y-40472D01*
G54D12*
X62442Y-41444D02*
X60392Y-41444D01*
X60392Y-41444D02*
X60392Y-40469D01*
X60392Y-40469D02*
X62442Y-40469D01*
X62442Y-40469D02*
X62442Y-41444D01*
G54D10*
X50590Y-35826D02*
X50590Y-40551D01*
X44685Y-40551D02*
X50787Y-40551D01*
X44685Y-35826D02*
X44685Y-40551D01*
X50787Y-35826D02*
X44685Y-35826D01*
G54D12*
X59055Y-37874D02*
X59055Y-38503D01*
X59055Y-38503D02*
X62204Y-38503D01*
X62204Y-38503D02*
X62204Y-37244D01*
X62204Y-37244D02*
X59055Y-37244D01*
X59055Y-37244D02*
X59055Y-37874D01*
X62413Y-34956D02*
X63413Y-34956D01*
X63413Y-34956D02*
X63413Y-37956D01*
X63413Y-37956D02*
X62413Y-37956D01*
X62413Y-37956D02*
X62413Y-34956D01*
G54D10*
X67362Y-36141D02*
X67362Y-40078D01*
X67362Y-40078D02*
X65393Y-40078D01*
X65393Y-40078D02*
X65393Y-36141D01*
X65393Y-36141D02*
X67362Y-36141D01*
X65059Y-36141D02*
X65059Y-40078D01*
X64074Y-40078D02*
X64074Y-36141D01*
X64074Y-36141D02*
X65059Y-36141D01*
X64074Y-40078D02*
X65059Y-40078D01*
G54D13*
G36*
X63539Y-41278D02*
X63546Y-41275D01*
X63559Y-41266D01*
X63579Y-41253D01*
X63602Y-41238D01*
X63626Y-41222D01*
X63645Y-41209D01*
X63659Y-41200D01*
X63664Y-41197D01*
X63667Y-41198D01*
X63678Y-41204D01*
X63694Y-41212D01*
X63704Y-41217D01*
X63719Y-41223D01*
X63726Y-41225D01*
X63727Y-41223D01*
X63733Y-41211D01*
X63741Y-41192D01*
X63752Y-41166D01*
X63765Y-41136D01*
X63779Y-41104D01*
X63792Y-41071D01*
X63805Y-41040D01*
X63817Y-41011D01*
X63826Y-40988D01*
X63832Y-40972D01*
X63835Y-40965D01*
X63834Y-40964D01*
X63827Y-40957D01*
X63814Y-40947D01*
X63786Y-40924D01*
X63758Y-40890D01*
X63741Y-40851D01*
X63736Y-40807D01*
X63740Y-40767D01*
X63756Y-40729D01*
X63783Y-40694D01*
X63816Y-40668D01*
X63854Y-40652D01*
X63897Y-40647D01*
X63938Y-40651D01*
X63977Y-40667D01*
X64012Y-40693D01*
X64027Y-40710D01*
X64047Y-40746D01*
X64059Y-40783D01*
X64060Y-40792D01*
X64058Y-40834D01*
X64046Y-40874D01*
X64024Y-40909D01*
X63994Y-40938D01*
X63990Y-40941D01*
X63976Y-40952D01*
X63966Y-40959D01*
X63959Y-40965D01*
X64012Y-41092D01*
X64020Y-41112D01*
X64035Y-41147D01*
X64047Y-41177D01*
X64058Y-41201D01*
X64065Y-41217D01*
X64068Y-41223D01*
X64068Y-41223D01*
X64073Y-41224D01*
X64082Y-41221D01*
X64100Y-41212D01*
X64112Y-41206D01*
X64125Y-41200D01*
X64131Y-41197D01*
X64137Y-41200D01*
X64150Y-41208D01*
X64168Y-41221D01*
X64191Y-41236D01*
X64213Y-41251D01*
X64233Y-41264D01*
X64247Y-41274D01*
X64254Y-41277D01*
X64255Y-41277D01*
X64262Y-41274D01*
X64273Y-41264D01*
X64290Y-41248D01*
X64315Y-41224D01*
X64319Y-41220D01*
X64339Y-41200D01*
X64355Y-41182D01*
X64366Y-41170D01*
X64370Y-41165D01*
X64370Y-41165D01*
X64366Y-41158D01*
X64357Y-41143D01*
X64344Y-41123D01*
X64328Y-41099D01*
X64286Y-41038D01*
X64309Y-40981D01*
X64316Y-40963D01*
X64325Y-40941D01*
X64332Y-40926D01*
X64335Y-40919D01*
X64342Y-40917D01*
X64357Y-40913D01*
X64380Y-40909D01*
X64408Y-40904D01*
X64434Y-40899D01*
X64457Y-40894D01*
X64474Y-40891D01*
X64482Y-40890D01*
X64484Y-40888D01*
X64485Y-40885D01*
X64486Y-40877D01*
X64487Y-40862D01*
X64487Y-40840D01*
X64487Y-40807D01*
X64487Y-40804D01*
X64487Y-40773D01*
X64486Y-40748D01*
X64485Y-40733D01*
X64484Y-40726D01*
X64484Y-40726D01*
X64477Y-40724D01*
X64460Y-40721D01*
X64437Y-40716D01*
X64409Y-40711D01*
X64407Y-40711D01*
X64379Y-40705D01*
X64356Y-40700D01*
X64339Y-40697D01*
X64332Y-40694D01*
X64331Y-40692D01*
X64325Y-40681D01*
X64317Y-40664D01*
X64308Y-40643D01*
X64299Y-40621D01*
X64291Y-40601D01*
X64286Y-40587D01*
X64284Y-40580D01*
X64284Y-40580D01*
X64288Y-40573D01*
X64298Y-40559D01*
X64312Y-40539D01*
X64328Y-40515D01*
X64329Y-40513D01*
X64345Y-40489D01*
X64358Y-40469D01*
X64367Y-40455D01*
X64370Y-40449D01*
X64370Y-40448D01*
X64365Y-40441D01*
X64353Y-40428D01*
X64335Y-40410D01*
X64315Y-40389D01*
X64308Y-40383D01*
X64285Y-40360D01*
X64269Y-40346D01*
X64259Y-40338D01*
X64255Y-40336D01*
X64254Y-40336D01*
X64247Y-40340D01*
X64232Y-40350D01*
X64212Y-40364D01*
X64188Y-40380D01*
X64187Y-40381D01*
X64163Y-40397D01*
X64143Y-40411D01*
X64129Y-40420D01*
X64123Y-40423D01*
X64122Y-40423D01*
X64113Y-40421D01*
X64096Y-40415D01*
X64075Y-40407D01*
X64053Y-40398D01*
X64033Y-40390D01*
X64019Y-40383D01*
X64012Y-40379D01*
X64011Y-40379D01*
X64009Y-40370D01*
X64005Y-40352D01*
X64000Y-40328D01*
X63994Y-40299D01*
X63993Y-40295D01*
X63988Y-40266D01*
X63984Y-40243D01*
X63980Y-40227D01*
X63979Y-40220D01*
X63975Y-40220D01*
X63961Y-40219D01*
X63940Y-40218D01*
X63914Y-40218D01*
X63888Y-40218D01*
X63862Y-40218D01*
X63840Y-40219D01*
X63824Y-40220D01*
X63817Y-40222D01*
X63817Y-40222D01*
X63815Y-40231D01*
X63811Y-40248D01*
X63806Y-40273D01*
X63800Y-40302D01*
X63799Y-40307D01*
X63794Y-40335D01*
X63789Y-40358D01*
X63786Y-40374D01*
X63784Y-40380D01*
X63782Y-40381D01*
X63770Y-40387D01*
X63751Y-40394D01*
X63728Y-40404D01*
X63674Y-40426D01*
X63608Y-40380D01*
X63602Y-40376D01*
X63578Y-40360D01*
X63558Y-40347D01*
X63544Y-40338D01*
X63539Y-40335D01*
X63538Y-40335D01*
X63532Y-40341D01*
X63519Y-40353D01*
X63501Y-40371D01*
X63480Y-40391D01*
X63464Y-40407D01*
X63446Y-40425D01*
X63435Y-40438D01*
X63428Y-40446D01*
X63426Y-40451D01*
X63427Y-40454D01*
X63431Y-40461D01*
X63441Y-40475D01*
X63454Y-40496D01*
X63470Y-40519D01*
X63484Y-40539D01*
X63498Y-40561D01*
X63507Y-40577D01*
X63511Y-40584D01*
X63510Y-40588D01*
X63505Y-40601D01*
X63497Y-40620D01*
X63487Y-40644D01*
X63464Y-40696D01*
X63430Y-40703D01*
X63409Y-40707D01*
X63380Y-40712D01*
X63352Y-40718D01*
X63308Y-40726D01*
X63307Y-40885D01*
X63314Y-40888D01*
X63320Y-40890D01*
X63336Y-40894D01*
X63359Y-40898D01*
X63386Y-40903D01*
X63410Y-40908D01*
X63433Y-40912D01*
X63450Y-40915D01*
X63457Y-40917D01*
X63459Y-40919D01*
X63465Y-40931D01*
X63473Y-40949D01*
X63482Y-40970D01*
X63492Y-40993D01*
X63500Y-41013D01*
X63506Y-41029D01*
X63508Y-41037D01*
X63505Y-41043D01*
X63496Y-41057D01*
X63483Y-41077D01*
X63467Y-41100D01*
X63451Y-41123D01*
X63438Y-41143D01*
X63428Y-41157D01*
X63425Y-41164D01*
X63427Y-41168D01*
X63436Y-41179D01*
X63453Y-41197D01*
X63479Y-41223D01*
X63484Y-41227D01*
X63504Y-41247D01*
X63522Y-41263D01*
X63534Y-41274D01*
X63539Y-41278D01*
X63539Y-41278D01*
G37*
G36*
X63782Y-38974D02*
X63778Y-39055D01*
X63766Y-39134D01*
X63746Y-39211D01*
X63717Y-39286D01*
X63680Y-39357D01*
X63635Y-39423D01*
X63598Y-39467D01*
X63598Y-39374D01*
X63597Y-39368D01*
X63594Y-39354D01*
X63589Y-39332D01*
X63582Y-39302D01*
X63574Y-39267D01*
X63565Y-39225D01*
X63554Y-39179D01*
X63543Y-39129D01*
X63531Y-39075D01*
X63518Y-39019D01*
X63504Y-38961D01*
X63491Y-38902D01*
X63477Y-38842D01*
X63464Y-38783D01*
X63450Y-38725D01*
X63437Y-38669D01*
X63425Y-38616D01*
X63413Y-38566D01*
X63403Y-38521D01*
X63393Y-38480D01*
X63385Y-38445D01*
X63378Y-38416D01*
X63373Y-38395D01*
X63370Y-38382D01*
X63369Y-38377D01*
X63364Y-38378D01*
X63353Y-38384D01*
X63336Y-38393D01*
X63316Y-38405D01*
X63309Y-38409D01*
X63284Y-38424D01*
X63267Y-38435D01*
X63257Y-38443D01*
X63253Y-38449D01*
X63252Y-38451D01*
X63254Y-38457D01*
X63257Y-38472D01*
X63262Y-38494D01*
X63269Y-38524D01*
X63278Y-38560D01*
X63288Y-38601D01*
X63299Y-38648D01*
X63311Y-38698D01*
X63324Y-38751D01*
X63334Y-38789D01*
X63347Y-38844D01*
X63360Y-38896D01*
X63371Y-38945D01*
X63382Y-38989D01*
X63391Y-39028D01*
X63399Y-39061D01*
X63405Y-39088D01*
X63410Y-39108D01*
X63412Y-39119D01*
X63413Y-39122D01*
X63409Y-39119D01*
X63399Y-39111D01*
X63382Y-39096D01*
X63361Y-39077D01*
X63334Y-39053D01*
X63304Y-39025D01*
X63269Y-38994D01*
X63231Y-38959D01*
X63191Y-38922D01*
X63152Y-38887D01*
X62893Y-38648D01*
X62873Y-38660D01*
X62859Y-38669D01*
X62855Y-38677D01*
X62855Y-38679D01*
X62858Y-38692D01*
X62862Y-38712D01*
X62868Y-38740D01*
X62876Y-38773D01*
X62884Y-38811D01*
X62894Y-38853D01*
X62904Y-38899D01*
X62914Y-38946D01*
X62925Y-38995D01*
X62936Y-39044D01*
X62947Y-39093D01*
X62957Y-39141D01*
X62967Y-39186D01*
X62976Y-39228D01*
X62985Y-39266D01*
X62992Y-39299D01*
X62998Y-39326D01*
X63002Y-39346D01*
X63005Y-39358D01*
X63005Y-39362D01*
X63001Y-39359D01*
X62991Y-39350D01*
X62976Y-39335D01*
X62954Y-39315D01*
X62928Y-39290D01*
X62898Y-39261D01*
X62864Y-39229D01*
X62827Y-39193D01*
X62788Y-39155D01*
X62752Y-39121D01*
X62711Y-39081D01*
X62672Y-39044D01*
X62635Y-39009D01*
X62601Y-38977D01*
X62571Y-38948D01*
X62545Y-38924D01*
X62525Y-38904D01*
X62509Y-38890D01*
X62500Y-38881D01*
X62496Y-38879D01*
X62490Y-38881D01*
X62478Y-38888D01*
X62462Y-38897D01*
X62443Y-38907D01*
X62424Y-38919D01*
X62407Y-38929D01*
X62393Y-38939D01*
X62385Y-38945D01*
X62383Y-38948D01*
X62386Y-38951D01*
X62397Y-38961D01*
X62413Y-38977D01*
X62435Y-38997D01*
X62461Y-39022D01*
X62492Y-39051D01*
X62527Y-39083D01*
X62565Y-39118D01*
X62605Y-39155D01*
X62647Y-39194D01*
X62691Y-39235D01*
X62736Y-39276D01*
X62781Y-39318D01*
X62826Y-39359D01*
X62870Y-39399D01*
X62912Y-39438D01*
X62953Y-39475D01*
X62991Y-39510D01*
X63026Y-39542D01*
X63057Y-39571D01*
X63084Y-39596D01*
X63107Y-39616D01*
X63124Y-39631D01*
X63135Y-39641D01*
X63139Y-39644D01*
X63139Y-39644D01*
X63146Y-39642D01*
X63157Y-39636D01*
X63160Y-39635D01*
X63170Y-39628D01*
X63173Y-39621D01*
X63172Y-39609D01*
X63171Y-39607D01*
X63169Y-39599D01*
X63166Y-39582D01*
X63161Y-39558D01*
X63154Y-39527D01*
X63146Y-39491D01*
X63137Y-39450D01*
X63128Y-39406D01*
X63118Y-39359D01*
X63107Y-39311D01*
X63097Y-39262D01*
X63087Y-39214D01*
X63076Y-39167D01*
X63067Y-39123D01*
X63058Y-39082D01*
X63050Y-39046D01*
X63044Y-39015D01*
X63039Y-38991D01*
X63035Y-38974D01*
X63034Y-38967D01*
X63030Y-38951D01*
X63029Y-38943D01*
X63031Y-38941D01*
X63035Y-38943D01*
X63035Y-38944D01*
X63040Y-38948D01*
X63052Y-38958D01*
X63069Y-38973D01*
X63093Y-38993D01*
X63121Y-39018D01*
X63153Y-39046D01*
X63189Y-39077D01*
X63229Y-39111D01*
X63270Y-39147D01*
X63304Y-39176D01*
X63564Y-39402D01*
X63581Y-39392D01*
X63592Y-39384D01*
X63597Y-39376D01*
X63598Y-39374D01*
X63598Y-39467D01*
X63583Y-39485D01*
X63523Y-39541D01*
X63458Y-39590D01*
X63398Y-39626D01*
X63333Y-39656D01*
X63265Y-39681D01*
X63198Y-39699D01*
X63187Y-39701D01*
X63155Y-39705D01*
X63117Y-39708D01*
X63075Y-39710D01*
X63033Y-39710D01*
X62993Y-39709D01*
X62959Y-39706D01*
X62949Y-39705D01*
X62867Y-39688D01*
X62788Y-39662D01*
X62713Y-39627D01*
X62642Y-39583D01*
X62576Y-39531D01*
X62537Y-39494D01*
X62482Y-39433D01*
X62436Y-39366D01*
X62397Y-39294D01*
X62367Y-39218D01*
X62345Y-39140D01*
X62332Y-39059D01*
X62328Y-38989D01*
X62333Y-38906D01*
X62347Y-38826D01*
X62369Y-38748D01*
X62399Y-38675D01*
X62437Y-38605D01*
X62482Y-38541D01*
X62534Y-38482D01*
X62592Y-38428D01*
X62655Y-38381D01*
X62724Y-38341D01*
X62798Y-38308D01*
X62876Y-38283D01*
X62951Y-38268D01*
X62980Y-38265D01*
X63015Y-38263D01*
X63054Y-38263D01*
X63093Y-38263D01*
X63128Y-38265D01*
X63158Y-38268D01*
X63159Y-38268D01*
X63241Y-38285D01*
X63319Y-38311D01*
X63393Y-38345D01*
X63462Y-38386D01*
X63526Y-38434D01*
X63584Y-38489D01*
X63636Y-38551D01*
X63681Y-38618D01*
X63718Y-38689D01*
X63747Y-38766D01*
X63760Y-38811D01*
X63775Y-38893D01*
X63782Y-38974D01*
X63782Y-38974D01*
X63782Y-38974D01*
G37*
G54D14*
X58910Y-36430D02*
X58891Y-36448D01*
X58835Y-36467D01*
X58798Y-36467D01*
X58741Y-36448D01*
X58704Y-36411D01*
X58685Y-36373D01*
X58666Y-36298D01*
X58666Y-36242D01*
X58685Y-36167D01*
X58704Y-36129D01*
X58741Y-36092D01*
X58798Y-36073D01*
X58835Y-36073D01*
X58891Y-36092D01*
X58910Y-36111D01*
X59042Y-36073D02*
X59285Y-36073D01*
X59154Y-36223D01*
X59210Y-36223D01*
X59248Y-36242D01*
X59267Y-36261D01*
X59285Y-36298D01*
X59285Y-36392D01*
X59267Y-36430D01*
X59248Y-36448D01*
X59210Y-36467D01*
X59098Y-36467D01*
X59060Y-36448D01*
X59042Y-36430D01*
X56705Y-40329D02*
X56574Y-40141D01*
X56480Y-40329D02*
X56480Y-39935D01*
X56630Y-39935D01*
X56668Y-39954D01*
X56687Y-39972D01*
X56705Y-40010D01*
X56705Y-40066D01*
X56687Y-40104D01*
X56668Y-40122D01*
X56630Y-40141D01*
X56480Y-40141D01*
X57043Y-40066D02*
X57043Y-40329D01*
X56949Y-39916D02*
X56856Y-40198D01*
X57099Y-40198D01*
X56705Y-36442D02*
X56574Y-36254D01*
X56480Y-36442D02*
X56480Y-36048D01*
X56630Y-36048D01*
X56668Y-36067D01*
X56687Y-36086D01*
X56705Y-36123D01*
X56705Y-36179D01*
X56687Y-36217D01*
X56668Y-36236D01*
X56630Y-36254D01*
X56480Y-36254D01*
X57062Y-36048D02*
X56874Y-36048D01*
X56856Y-36236D01*
X56874Y-36217D01*
X56912Y-36198D01*
X57006Y-36198D01*
X57043Y-36217D01*
X57062Y-36236D01*
X57081Y-36273D01*
X57081Y-36367D01*
X57062Y-36405D01*
X57043Y-36423D01*
X57006Y-36442D01*
X56912Y-36442D01*
X56874Y-36423D01*
X56856Y-36405D01*
X55721Y-39175D02*
X55590Y-38987D01*
X55496Y-39175D02*
X55496Y-38781D01*
X55646Y-38781D01*
X55684Y-38799D01*
X55702Y-38818D01*
X55721Y-38856D01*
X55721Y-38912D01*
X55702Y-38950D01*
X55684Y-38968D01*
X55646Y-38987D01*
X55496Y-38987D01*
X56096Y-39175D02*
X55871Y-39175D01*
X55984Y-39175D02*
X55984Y-38781D01*
X55946Y-38837D01*
X55909Y-38875D01*
X55871Y-38893D01*
X55721Y-36970D02*
X55590Y-36782D01*
X55496Y-36970D02*
X55496Y-36576D01*
X55646Y-36576D01*
X55684Y-36595D01*
X55702Y-36614D01*
X55721Y-36651D01*
X55721Y-36707D01*
X55702Y-36745D01*
X55684Y-36764D01*
X55646Y-36782D01*
X55496Y-36782D01*
X55871Y-36614D02*
X55890Y-36595D01*
X55928Y-36576D01*
X56021Y-36576D01*
X56059Y-36595D01*
X56078Y-36614D01*
X56096Y-36651D01*
X56096Y-36689D01*
X56078Y-36745D01*
X55853Y-36970D01*
X56096Y-36970D01*
X55721Y-39728D02*
X55702Y-39747D01*
X55646Y-39765D01*
X55609Y-39765D01*
X55552Y-39747D01*
X55515Y-39709D01*
X55496Y-39671D01*
X55477Y-39596D01*
X55477Y-39540D01*
X55496Y-39465D01*
X55515Y-39428D01*
X55552Y-39390D01*
X55609Y-39371D01*
X55646Y-39371D01*
X55702Y-39390D01*
X55721Y-39409D01*
X56096Y-39765D02*
X55871Y-39765D01*
X55984Y-39765D02*
X55984Y-39371D01*
X55946Y-39428D01*
X55909Y-39465D01*
X55871Y-39484D01*
X55721Y-37523D02*
X55702Y-37542D01*
X55646Y-37561D01*
X55609Y-37561D01*
X55552Y-37542D01*
X55515Y-37504D01*
X55496Y-37467D01*
X55477Y-37392D01*
X55477Y-37335D01*
X55496Y-37260D01*
X55515Y-37223D01*
X55552Y-37185D01*
X55609Y-37167D01*
X55646Y-37167D01*
X55702Y-37185D01*
X55721Y-37204D01*
X55871Y-37204D02*
X55890Y-37185D01*
X55928Y-37167D01*
X56021Y-37167D01*
X56059Y-37185D01*
X56078Y-37204D01*
X56096Y-37242D01*
X56096Y-37279D01*
X56078Y-37335D01*
X55853Y-37561D01*
X56096Y-37561D01*
X59698Y-36736D02*
X59679Y-36754D01*
X59623Y-36773D01*
X59585Y-36773D01*
X59529Y-36754D01*
X59491Y-36717D01*
X59472Y-36679D01*
X59454Y-36604D01*
X59454Y-36548D01*
X59472Y-36473D01*
X59491Y-36435D01*
X59529Y-36398D01*
X59585Y-36379D01*
X59623Y-36379D01*
X59679Y-36398D01*
X59698Y-36417D01*
X60035Y-36510D02*
X60035Y-36773D01*
X59942Y-36360D02*
X59848Y-36642D01*
X60092Y-36642D01*
X58202Y-40356D02*
X58070Y-40168D01*
X57976Y-40356D02*
X57976Y-39962D01*
X58127Y-39962D01*
X58164Y-39981D01*
X58183Y-39999D01*
X58202Y-40037D01*
X58202Y-40093D01*
X58183Y-40131D01*
X58164Y-40149D01*
X58127Y-40168D01*
X57976Y-40168D01*
X58333Y-39962D02*
X58577Y-39962D01*
X58445Y-40112D01*
X58502Y-40112D01*
X58539Y-40131D01*
X58558Y-40149D01*
X58577Y-40187D01*
X58577Y-40281D01*
X58558Y-40318D01*
X58539Y-40337D01*
X58502Y-40356D01*
X58389Y-40356D01*
X58352Y-40337D01*
X58333Y-40318D01*
X56117Y-38190D02*
X56117Y-38509D01*
X56135Y-38547D01*
X56154Y-38565D01*
X56192Y-38584D01*
X56267Y-38584D01*
X56304Y-38565D01*
X56323Y-38547D01*
X56342Y-38509D01*
X56342Y-38190D01*
X56736Y-38584D02*
X56511Y-38584D01*
X56623Y-38584D02*
X56623Y-38190D01*
X56586Y-38246D01*
X56548Y-38284D01*
X56511Y-38303D01*
X52543Y-41064D02*
X52543Y-40670D01*
X52637Y-40670D01*
X52693Y-40689D01*
X52731Y-40727D01*
X52750Y-40764D01*
X52768Y-40839D01*
X52768Y-40896D01*
X52750Y-40971D01*
X52731Y-41008D01*
X52693Y-41046D01*
X52637Y-41064D01*
X52543Y-41064D01*
X52919Y-40708D02*
X52937Y-40689D01*
X52975Y-40670D01*
X53069Y-40670D01*
X53106Y-40689D01*
X53125Y-40708D01*
X53144Y-40746D01*
X53144Y-40783D01*
X53125Y-40839D01*
X52900Y-41064D01*
X53144Y-41064D01*
G54D11*
X55485Y-41104D02*
X55485Y-40710D01*
X55523Y-40954D02*
X55635Y-41104D01*
X55635Y-40841D02*
X55485Y-40991D01*
G54D14*
X52564Y-35592D02*
X52564Y-35198D01*
X52658Y-35198D01*
X52714Y-35217D01*
X52752Y-35254D01*
X52771Y-35292D01*
X52790Y-35367D01*
X52790Y-35423D01*
X52771Y-35498D01*
X52752Y-35536D01*
X52714Y-35573D01*
X52658Y-35592D01*
X52564Y-35592D01*
X52921Y-35198D02*
X53165Y-35198D01*
X53033Y-35348D01*
X53090Y-35348D01*
X53127Y-35367D01*
X53146Y-35386D01*
X53165Y-35423D01*
X53165Y-35517D01*
X53146Y-35555D01*
X53127Y-35573D01*
X53090Y-35592D01*
X52977Y-35592D01*
X52940Y-35573D01*
X52921Y-35555D01*
G54D11*
X55485Y-35592D02*
X55485Y-35198D01*
X55523Y-35442D02*
X55635Y-35592D01*
X55635Y-35329D02*
X55485Y-35479D01*
G54D14*
X62583Y-41419D02*
X62583Y-41025D01*
X62677Y-41025D01*
X62733Y-41044D01*
X62770Y-41081D01*
X62789Y-41119D01*
X62808Y-41194D01*
X62808Y-41250D01*
X62789Y-41325D01*
X62770Y-41363D01*
X62733Y-41400D01*
X62677Y-41419D01*
X62583Y-41419D01*
X63183Y-41419D02*
X62958Y-41419D01*
X63071Y-41419D02*
X63071Y-41025D01*
X63033Y-41081D01*
X62995Y-41119D01*
X62958Y-41137D01*
G54D11*
X60131Y-41104D02*
X60131Y-40710D01*
X60168Y-40954D02*
X60281Y-41104D01*
X60281Y-40841D02*
X60131Y-40991D01*
X60104Y-38014D02*
X60161Y-38033D01*
X60254Y-38033D01*
X60292Y-38014D01*
X60311Y-37995D01*
X60329Y-37958D01*
X60329Y-37920D01*
X60311Y-37883D01*
X60292Y-37864D01*
X60254Y-37845D01*
X60179Y-37827D01*
X60142Y-37808D01*
X60123Y-37789D01*
X60104Y-37752D01*
X60104Y-37714D01*
X60123Y-37677D01*
X60142Y-37658D01*
X60179Y-37639D01*
X60273Y-37639D01*
X60329Y-37658D01*
X60461Y-37639D02*
X60554Y-38033D01*
X60629Y-37752D01*
X60704Y-38033D01*
X60798Y-37639D01*
X61154Y-38033D02*
X60929Y-38033D01*
X61042Y-38033D02*
X61042Y-37639D01*
X61004Y-37695D01*
X60967Y-37733D01*
X60929Y-37752D01*
M02*
