G04 (created by PCBNEW (2013-07-07 BZR 4022)-stable) date 25/03/2015 14:08:15*
%MOIN*%
G04 Gerber Fmt 3.4, Leading zero omitted, Abs format*
%FSLAX34Y34*%
G01*
G70*
G90*
G04 APERTURE LIST*
%ADD10C,0.00590551*%
%ADD11R,0.0472441X0.0472441*%
%ADD12C,0.0472441*%
%ADD13R,0.0354331X0.0944882*%
%ADD14O,0.137795X0.0787402*%
%ADD15C,0.0590551*%
%ADD16R,0.06X0.06*%
%ADD17C,0.06*%
%ADD18C,0.0314961*%
%ADD19C,0.019685*%
%ADD20C,0.00787402*%
G04 APERTURE END LIST*
G54D10*
G54D11*
X68818Y-39291D03*
G54D12*
X68818Y-38503D03*
X68818Y-37716D03*
X68818Y-36929D03*
G54D13*
X65356Y-40794D03*
X65946Y-40794D03*
X66537Y-40794D03*
X67127Y-40794D03*
X67718Y-40794D03*
X68309Y-40794D03*
X68899Y-40794D03*
X69490Y-40794D03*
X65356Y-35479D03*
X65946Y-35479D03*
X66537Y-35479D03*
X67127Y-35479D03*
X67718Y-35479D03*
X68309Y-35479D03*
X68899Y-35479D03*
X69490Y-35479D03*
G54D14*
X51515Y-35885D03*
X51515Y-40492D03*
G54D15*
X52342Y-38582D03*
X52342Y-37795D03*
X52342Y-36811D03*
X52342Y-39566D03*
G54D16*
X62913Y-35456D03*
G54D17*
X62913Y-36456D03*
X62913Y-37456D03*
G54D16*
X65877Y-36610D03*
G54D17*
X65877Y-37610D03*
X65877Y-38610D03*
X65877Y-39610D03*
X66877Y-36610D03*
X66877Y-37610D03*
X66877Y-38610D03*
X66877Y-39610D03*
G54D16*
X64566Y-39610D03*
G54D17*
X64566Y-38610D03*
X64566Y-37610D03*
X64566Y-36610D03*
G54D18*
X58233Y-37637D03*
X57480Y-40157D03*
X68897Y-36338D03*
X61220Y-35944D03*
X64173Y-38110D03*
X62598Y-40629D03*
X56338Y-37874D03*
X60649Y-38011D03*
X58425Y-38031D03*
X57244Y-38031D03*
G54D19*
X62913Y-35456D02*
X60414Y-35456D01*
X60414Y-35456D02*
X58233Y-37637D01*
X62913Y-37456D02*
X62913Y-39448D01*
X62913Y-39448D02*
X62204Y-40157D01*
X62204Y-40157D02*
X57480Y-40157D01*
X52342Y-39566D02*
X56889Y-39566D01*
X56889Y-39566D02*
X57480Y-40157D01*
G54D20*
X68899Y-36336D02*
X68899Y-35479D01*
X68897Y-36338D02*
X68899Y-36336D01*
X62519Y-35944D02*
X61220Y-35944D01*
X62952Y-35944D02*
X62519Y-35944D01*
X66537Y-35001D02*
X66537Y-35479D01*
X66417Y-34881D02*
X66537Y-35001D01*
X64724Y-34881D02*
X66417Y-34881D01*
X63661Y-35944D02*
X64724Y-34881D01*
X62952Y-35944D02*
X63661Y-35944D01*
X65775Y-38610D02*
X65877Y-38610D01*
X65275Y-38110D02*
X65775Y-38610D01*
X64173Y-38110D02*
X65275Y-38110D01*
X66877Y-39610D02*
X67090Y-39610D01*
X67718Y-40238D02*
X67718Y-40794D01*
X67090Y-39610D02*
X67718Y-40238D01*
X68818Y-38503D02*
X68976Y-38503D01*
X68899Y-39919D02*
X68899Y-40794D01*
X69291Y-39527D02*
X68899Y-39919D01*
X69291Y-38818D02*
X69291Y-39527D01*
X68976Y-38503D02*
X69291Y-38818D01*
X63622Y-39606D02*
X63622Y-38228D01*
X63622Y-38070D02*
X63622Y-38228D01*
X64082Y-37610D02*
X63622Y-38070D01*
X64566Y-37610D02*
X64082Y-37610D01*
X62598Y-40629D02*
X63622Y-39606D01*
G54D19*
X65356Y-35479D02*
X64875Y-35479D01*
X63897Y-36456D02*
X62913Y-36456D01*
X64875Y-35479D02*
X63897Y-36456D01*
X65877Y-39610D02*
X65980Y-39610D01*
X66377Y-39212D02*
X66377Y-38110D01*
X65980Y-39610D02*
X66377Y-39212D01*
X65877Y-37610D02*
X66377Y-38110D01*
X68110Y-37716D02*
X68818Y-37716D01*
X67716Y-38110D02*
X68110Y-37716D01*
X66377Y-38110D02*
X67716Y-38110D01*
X64566Y-37610D02*
X65877Y-37610D01*
G54D20*
X56338Y-37874D02*
X56318Y-37893D01*
G54D19*
X67127Y-35479D02*
X67127Y-36360D01*
X67127Y-36360D02*
X66877Y-36610D01*
X66877Y-36610D02*
X68500Y-36610D01*
X68500Y-36610D02*
X68818Y-36929D01*
X64566Y-36610D02*
X64566Y-36653D01*
X66362Y-37125D02*
X66877Y-36610D01*
X65039Y-37125D02*
X66362Y-37125D01*
X64566Y-36653D02*
X65039Y-37125D01*
X64566Y-36610D02*
X64566Y-36614D01*
X61692Y-36968D02*
X60649Y-38011D01*
X64212Y-36968D02*
X61692Y-36968D01*
X64566Y-36614D02*
X64212Y-36968D01*
X60649Y-38011D02*
X60629Y-38031D01*
X60629Y-38031D02*
X58425Y-38031D01*
X52342Y-36811D02*
X55236Y-36811D01*
X55236Y-36811D02*
X56062Y-37637D01*
X56456Y-38031D02*
X57244Y-38031D01*
X56318Y-37893D02*
X56456Y-38031D01*
X56062Y-37637D02*
X56318Y-37893D01*
X57244Y-38031D02*
X58425Y-38031D01*
M02*
