M48
;DRILL file {Pcbnew (2013-07-07 BZR 4022)-stable} date 25/03/2015 14:08:24
;FORMAT={-:-/ absolute / metric / decimal}
FMAT,2
METRIC,TZ
T1C0.400
T2C0.700
T3C1.000
T4C1.016
%
G90
G05
M71
T1
X143.1Y-96.2
X145.4Y-96.6
X146.Y-102.
X147.914Y-95.6
X148.4Y-96.6
X154.05Y-96.55
X155.5Y-91.3
X159.Y-103.2
X163.Y-96.8
X175.Y-92.3
T2
X174.8Y-93.8
X174.8Y-95.8
X174.8Y-97.8
X174.8Y-99.8
T3
X132.95Y-93.5
X132.95Y-96.
X132.95Y-98.
X132.95Y-100.5
T4
X159.8Y-90.06
X159.8Y-92.6
X159.8Y-95.14
X164.Y-92.99
X164.Y-95.53
X164.Y-98.07
X164.Y-100.61
X167.33Y-92.99
X167.33Y-95.53
X167.33Y-98.07
X167.33Y-100.61
X169.87Y-92.99
X169.87Y-95.53
X169.87Y-98.07
X169.87Y-100.61
T3
X130.1Y-91.15G85X131.6Y-91.15
G05
X130.1Y-102.85G85X131.6Y-102.85
G05
T0
M30
