G04 (created by PCBNEW (2013-07-07 BZR 4022)-stable) date 25/03/2015 14:08:15*
%MOIN*%
G04 Gerber Fmt 3.4, Leading zero omitted, Abs format*
%FSLAX34Y34*%
G01*
G70*
G90*
G04 APERTURE LIST*
%ADD10C,0.00590551*%
G04 APERTURE END LIST*
G54D10*
G36*
X51771Y-37279D02*
X51771Y-37334D01*
X51759Y-37385D01*
X51740Y-37428D01*
X51709Y-37472D01*
X51675Y-37505D01*
X51630Y-37533D01*
X51586Y-37550D01*
X51533Y-37559D01*
X51486Y-37558D01*
X51434Y-37547D01*
X51391Y-37528D01*
X51347Y-37498D01*
X51315Y-37464D01*
X51286Y-37419D01*
X51268Y-37375D01*
X51259Y-37323D01*
X51259Y-37276D01*
X51270Y-37223D01*
X51289Y-37180D01*
X51319Y-37136D01*
X51353Y-37103D01*
X51398Y-37074D01*
X51441Y-37056D01*
X51494Y-37046D01*
X51540Y-37047D01*
X51593Y-37057D01*
X51636Y-37075D01*
X51681Y-37106D01*
X51713Y-37139D01*
X51743Y-37184D01*
X51761Y-37226D01*
X51771Y-37278D01*
X51771Y-37279D01*
X51771Y-37279D01*
G37*
G36*
X51771Y-39051D02*
X51771Y-39105D01*
X51759Y-39157D01*
X51740Y-39200D01*
X51709Y-39244D01*
X51675Y-39276D01*
X51630Y-39305D01*
X51586Y-39322D01*
X51533Y-39331D01*
X51486Y-39330D01*
X51434Y-39319D01*
X51391Y-39300D01*
X51347Y-39269D01*
X51315Y-39235D01*
X51286Y-39190D01*
X51268Y-39147D01*
X51259Y-39094D01*
X51259Y-39047D01*
X51270Y-38995D01*
X51289Y-38952D01*
X51319Y-38908D01*
X51353Y-38875D01*
X51398Y-38845D01*
X51441Y-38828D01*
X51494Y-38818D01*
X51540Y-38818D01*
X51593Y-38829D01*
X51636Y-38847D01*
X51681Y-38877D01*
X51713Y-38910D01*
X51743Y-38955D01*
X51761Y-38998D01*
X51771Y-39049D01*
X51771Y-39051D01*
X51771Y-39051D01*
G37*
G36*
X52247Y-35888D02*
X52238Y-35973D01*
X52213Y-36053D01*
X52173Y-36128D01*
X52119Y-36193D01*
X52054Y-36246D01*
X51979Y-36286D01*
X51898Y-36310D01*
X51810Y-36319D01*
X51220Y-36319D01*
X51214Y-36319D01*
X51211Y-36318D01*
X51210Y-36318D01*
X51126Y-36309D01*
X51126Y-36309D01*
X51126Y-36309D01*
X51046Y-36283D01*
X50971Y-36243D01*
X50907Y-36188D01*
X50854Y-36122D01*
X50815Y-36048D01*
X50791Y-35966D01*
X50783Y-35882D01*
X50792Y-35798D01*
X50817Y-35718D01*
X50857Y-35643D01*
X50911Y-35578D01*
X50977Y-35525D01*
X51051Y-35485D01*
X51132Y-35461D01*
X51220Y-35452D01*
X51810Y-35452D01*
X51817Y-35452D01*
X51820Y-35452D01*
X51820Y-35452D01*
X51904Y-35462D01*
X51904Y-35462D01*
X51904Y-35462D01*
X51985Y-35487D01*
X52059Y-35528D01*
X52123Y-35582D01*
X52177Y-35648D01*
X52216Y-35723D01*
X52240Y-35804D01*
X52247Y-35888D01*
X52247Y-35888D01*
G37*
G36*
X52247Y-40495D02*
X52238Y-40579D01*
X52213Y-40659D01*
X52173Y-40734D01*
X52119Y-40799D01*
X52054Y-40852D01*
X51979Y-40892D01*
X51898Y-40916D01*
X51810Y-40925D01*
X51220Y-40925D01*
X51214Y-40925D01*
X51211Y-40925D01*
X51210Y-40925D01*
X51126Y-40915D01*
X51126Y-40915D01*
X51126Y-40915D01*
X51046Y-40890D01*
X50971Y-40849D01*
X50907Y-40795D01*
X50854Y-40729D01*
X50815Y-40654D01*
X50791Y-40573D01*
X50783Y-40489D01*
X50792Y-40404D01*
X50817Y-40324D01*
X50857Y-40249D01*
X50911Y-40184D01*
X50977Y-40131D01*
X51051Y-40091D01*
X51132Y-40067D01*
X51220Y-40058D01*
X51810Y-40058D01*
X51817Y-40058D01*
X51820Y-40059D01*
X51820Y-40059D01*
X51904Y-40068D01*
X51904Y-40068D01*
X51904Y-40068D01*
X51985Y-40093D01*
X52059Y-40134D01*
X52123Y-40188D01*
X52177Y-40255D01*
X52216Y-40329D01*
X52240Y-40411D01*
X52247Y-40495D01*
X52247Y-40495D01*
G37*
G36*
X52677Y-36779D02*
X52676Y-36851D01*
X52661Y-36918D01*
X52635Y-36975D01*
X52596Y-37031D01*
X52550Y-37075D01*
X52492Y-37111D01*
X52434Y-37134D01*
X52366Y-37146D01*
X52304Y-37145D01*
X52237Y-37130D01*
X52179Y-37105D01*
X52123Y-37066D01*
X52079Y-37021D01*
X52042Y-36963D01*
X52019Y-36905D01*
X52007Y-36837D01*
X52008Y-36775D01*
X52022Y-36707D01*
X52046Y-36650D01*
X52085Y-36593D01*
X52130Y-36549D01*
X52188Y-36512D01*
X52245Y-36488D01*
X52313Y-36475D01*
X52375Y-36476D01*
X52443Y-36490D01*
X52500Y-36514D01*
X52558Y-36552D01*
X52602Y-36596D01*
X52640Y-36654D01*
X52664Y-36711D01*
X52677Y-36778D01*
X52677Y-36779D01*
X52677Y-36779D01*
G37*
G36*
X52677Y-37763D02*
X52676Y-37836D01*
X52661Y-37902D01*
X52635Y-37960D01*
X52596Y-38016D01*
X52550Y-38059D01*
X52492Y-38096D01*
X52434Y-38118D01*
X52366Y-38130D01*
X52304Y-38129D01*
X52237Y-38114D01*
X52179Y-38089D01*
X52123Y-38050D01*
X52079Y-38005D01*
X52042Y-37947D01*
X52019Y-37889D01*
X52007Y-37821D01*
X52008Y-37759D01*
X52022Y-37691D01*
X52046Y-37634D01*
X52085Y-37577D01*
X52130Y-37534D01*
X52188Y-37496D01*
X52245Y-37473D01*
X52313Y-37460D01*
X52375Y-37460D01*
X52443Y-37474D01*
X52500Y-37498D01*
X52558Y-37537D01*
X52602Y-37581D01*
X52640Y-37639D01*
X52664Y-37696D01*
X52677Y-37762D01*
X52677Y-37763D01*
X52677Y-37763D01*
G37*
G36*
X52677Y-38551D02*
X52676Y-38623D01*
X52661Y-38690D01*
X52635Y-38747D01*
X52596Y-38803D01*
X52550Y-38846D01*
X52492Y-38883D01*
X52434Y-38906D01*
X52366Y-38918D01*
X52304Y-38916D01*
X52237Y-38902D01*
X52179Y-38877D01*
X52123Y-38837D01*
X52079Y-38792D01*
X52042Y-38735D01*
X52019Y-38676D01*
X52007Y-38609D01*
X52008Y-38546D01*
X52022Y-38479D01*
X52046Y-38422D01*
X52085Y-38365D01*
X52130Y-38321D01*
X52188Y-38283D01*
X52245Y-38260D01*
X52313Y-38247D01*
X52375Y-38247D01*
X52443Y-38261D01*
X52500Y-38285D01*
X52558Y-38324D01*
X52602Y-38368D01*
X52640Y-38426D01*
X52664Y-38483D01*
X52677Y-38549D01*
X52677Y-38551D01*
X52677Y-38551D01*
G37*
G36*
X52677Y-39535D02*
X52676Y-39607D01*
X52661Y-39674D01*
X52635Y-39731D01*
X52596Y-39787D01*
X52550Y-39831D01*
X52492Y-39867D01*
X52434Y-39890D01*
X52366Y-39902D01*
X52304Y-39901D01*
X52237Y-39886D01*
X52179Y-39861D01*
X52123Y-39822D01*
X52079Y-39777D01*
X52042Y-39719D01*
X52019Y-39661D01*
X52007Y-39593D01*
X52008Y-39531D01*
X52022Y-39463D01*
X52046Y-39406D01*
X52085Y-39349D01*
X52130Y-39305D01*
X52188Y-39267D01*
X52245Y-39244D01*
X52313Y-39231D01*
X52375Y-39232D01*
X52443Y-39246D01*
X52500Y-39270D01*
X52558Y-39308D01*
X52602Y-39352D01*
X52640Y-39410D01*
X52664Y-39467D01*
X52677Y-39534D01*
X52677Y-39535D01*
X52677Y-39535D01*
G37*
G36*
X63253Y-36424D02*
X63252Y-36498D01*
X63236Y-36565D01*
X63210Y-36623D01*
X63170Y-36680D01*
X63124Y-36724D01*
X63065Y-36761D01*
X63006Y-36784D01*
X62938Y-36796D01*
X62874Y-36795D01*
X62806Y-36780D01*
X62748Y-36755D01*
X62691Y-36715D01*
X62647Y-36669D01*
X62609Y-36611D01*
X62585Y-36552D01*
X62573Y-36483D01*
X62574Y-36420D01*
X62588Y-36351D01*
X62613Y-36293D01*
X62653Y-36236D01*
X62698Y-36191D01*
X62756Y-36153D01*
X62815Y-36129D01*
X62884Y-36116D01*
X62947Y-36117D01*
X63016Y-36131D01*
X63074Y-36155D01*
X63132Y-36194D01*
X63176Y-36239D01*
X63215Y-36298D01*
X63239Y-36356D01*
X63252Y-36423D01*
X63253Y-36424D01*
X63253Y-36424D01*
G37*
G36*
X63253Y-37424D02*
X63252Y-37498D01*
X63236Y-37565D01*
X63210Y-37623D01*
X63170Y-37680D01*
X63124Y-37724D01*
X63065Y-37761D01*
X63006Y-37784D01*
X62938Y-37796D01*
X62874Y-37795D01*
X62806Y-37780D01*
X62748Y-37755D01*
X62691Y-37715D01*
X62647Y-37669D01*
X62609Y-37611D01*
X62585Y-37552D01*
X62573Y-37483D01*
X62574Y-37420D01*
X62588Y-37351D01*
X62613Y-37293D01*
X62653Y-37236D01*
X62698Y-37191D01*
X62756Y-37153D01*
X62815Y-37129D01*
X62884Y-37116D01*
X62947Y-37117D01*
X63016Y-37131D01*
X63074Y-37155D01*
X63132Y-37194D01*
X63176Y-37239D01*
X63215Y-37298D01*
X63239Y-37356D01*
X63252Y-37423D01*
X63253Y-37424D01*
X63253Y-37424D01*
G37*
G36*
X63253Y-35796D02*
X62573Y-35796D01*
X62573Y-35116D01*
X63253Y-35116D01*
X63253Y-35796D01*
X63253Y-35796D01*
G37*
G36*
X64906Y-36578D02*
X64905Y-36651D01*
X64890Y-36719D01*
X64864Y-36777D01*
X64824Y-36834D01*
X64778Y-36878D01*
X64719Y-36915D01*
X64660Y-36938D01*
X64591Y-36950D01*
X64528Y-36949D01*
X64460Y-36934D01*
X64401Y-36908D01*
X64344Y-36869D01*
X64300Y-36823D01*
X64262Y-36764D01*
X64239Y-36705D01*
X64226Y-36637D01*
X64227Y-36573D01*
X64242Y-36505D01*
X64267Y-36447D01*
X64306Y-36389D01*
X64351Y-36345D01*
X64410Y-36307D01*
X64468Y-36283D01*
X64537Y-36270D01*
X64600Y-36270D01*
X64669Y-36284D01*
X64727Y-36309D01*
X64785Y-36348D01*
X64830Y-36393D01*
X64869Y-36451D01*
X64893Y-36509D01*
X64906Y-36576D01*
X64906Y-36578D01*
X64906Y-36578D01*
G37*
G36*
X64906Y-37578D02*
X64905Y-37651D01*
X64890Y-37719D01*
X64864Y-37777D01*
X64824Y-37834D01*
X64778Y-37878D01*
X64719Y-37915D01*
X64660Y-37938D01*
X64591Y-37950D01*
X64528Y-37949D01*
X64460Y-37934D01*
X64401Y-37908D01*
X64344Y-37869D01*
X64300Y-37823D01*
X64262Y-37764D01*
X64239Y-37705D01*
X64226Y-37637D01*
X64227Y-37573D01*
X64242Y-37505D01*
X64267Y-37447D01*
X64306Y-37389D01*
X64351Y-37345D01*
X64410Y-37307D01*
X64468Y-37283D01*
X64537Y-37270D01*
X64600Y-37270D01*
X64669Y-37284D01*
X64727Y-37309D01*
X64785Y-37348D01*
X64830Y-37393D01*
X64869Y-37451D01*
X64893Y-37509D01*
X64906Y-37576D01*
X64906Y-37578D01*
X64906Y-37578D01*
G37*
G36*
X64906Y-38578D02*
X64905Y-38651D01*
X64890Y-38719D01*
X64864Y-38777D01*
X64824Y-38834D01*
X64778Y-38878D01*
X64719Y-38915D01*
X64660Y-38938D01*
X64591Y-38950D01*
X64528Y-38949D01*
X64460Y-38934D01*
X64401Y-38908D01*
X64344Y-38869D01*
X64300Y-38823D01*
X64262Y-38764D01*
X64239Y-38705D01*
X64226Y-38637D01*
X64227Y-38573D01*
X64242Y-38505D01*
X64267Y-38447D01*
X64306Y-38389D01*
X64351Y-38345D01*
X64410Y-38307D01*
X64468Y-38283D01*
X64537Y-38270D01*
X64600Y-38270D01*
X64669Y-38284D01*
X64727Y-38309D01*
X64785Y-38348D01*
X64830Y-38393D01*
X64869Y-38451D01*
X64893Y-38509D01*
X64906Y-38576D01*
X64906Y-38578D01*
X64906Y-38578D01*
G37*
G36*
X64906Y-39949D02*
X64227Y-39949D01*
X64227Y-39270D01*
X64906Y-39270D01*
X64906Y-39949D01*
X64906Y-39949D01*
G37*
G36*
X65573Y-35991D02*
X65139Y-35991D01*
X65139Y-34966D01*
X65573Y-34966D01*
X65573Y-35991D01*
X65573Y-35991D01*
G37*
G36*
X65573Y-41306D02*
X65139Y-41306D01*
X65139Y-40281D01*
X65573Y-40281D01*
X65573Y-41306D01*
X65573Y-41306D01*
G37*
G36*
X66163Y-35991D02*
X65729Y-35991D01*
X65729Y-34966D01*
X66163Y-34966D01*
X66163Y-35991D01*
X66163Y-35991D01*
G37*
G36*
X66163Y-41306D02*
X65729Y-41306D01*
X65729Y-40281D01*
X66163Y-40281D01*
X66163Y-41306D01*
X66163Y-41306D01*
G37*
G36*
X66217Y-37578D02*
X66216Y-37651D01*
X66201Y-37719D01*
X66175Y-37777D01*
X66135Y-37834D01*
X66089Y-37878D01*
X66030Y-37915D01*
X65971Y-37938D01*
X65902Y-37950D01*
X65839Y-37949D01*
X65771Y-37934D01*
X65712Y-37908D01*
X65655Y-37869D01*
X65611Y-37823D01*
X65573Y-37764D01*
X65550Y-37705D01*
X65537Y-37637D01*
X65538Y-37573D01*
X65553Y-37505D01*
X65578Y-37447D01*
X65617Y-37389D01*
X65662Y-37345D01*
X65721Y-37307D01*
X65779Y-37283D01*
X65848Y-37270D01*
X65911Y-37270D01*
X65980Y-37284D01*
X66038Y-37309D01*
X66096Y-37348D01*
X66141Y-37393D01*
X66180Y-37451D01*
X66204Y-37509D01*
X66217Y-37576D01*
X66217Y-37578D01*
X66217Y-37578D01*
G37*
G36*
X66217Y-38578D02*
X66216Y-38651D01*
X66201Y-38719D01*
X66175Y-38777D01*
X66135Y-38834D01*
X66089Y-38878D01*
X66030Y-38915D01*
X65971Y-38938D01*
X65902Y-38950D01*
X65839Y-38949D01*
X65771Y-38934D01*
X65712Y-38908D01*
X65655Y-38869D01*
X65611Y-38823D01*
X65573Y-38764D01*
X65550Y-38705D01*
X65537Y-38637D01*
X65538Y-38573D01*
X65553Y-38505D01*
X65578Y-38447D01*
X65617Y-38389D01*
X65662Y-38345D01*
X65721Y-38307D01*
X65779Y-38283D01*
X65848Y-38270D01*
X65911Y-38270D01*
X65980Y-38284D01*
X66038Y-38309D01*
X66096Y-38348D01*
X66141Y-38393D01*
X66180Y-38451D01*
X66204Y-38509D01*
X66217Y-38576D01*
X66217Y-38578D01*
X66217Y-38578D01*
G37*
G36*
X66217Y-39578D02*
X66216Y-39651D01*
X66201Y-39719D01*
X66175Y-39777D01*
X66135Y-39834D01*
X66089Y-39878D01*
X66030Y-39915D01*
X65971Y-39938D01*
X65902Y-39950D01*
X65839Y-39949D01*
X65771Y-39934D01*
X65712Y-39908D01*
X65655Y-39869D01*
X65611Y-39823D01*
X65573Y-39764D01*
X65550Y-39705D01*
X65537Y-39637D01*
X65538Y-39573D01*
X65553Y-39505D01*
X65578Y-39447D01*
X65617Y-39389D01*
X65662Y-39345D01*
X65721Y-39307D01*
X65779Y-39283D01*
X65848Y-39270D01*
X65911Y-39270D01*
X65980Y-39284D01*
X66038Y-39309D01*
X66096Y-39348D01*
X66141Y-39393D01*
X66180Y-39451D01*
X66204Y-39509D01*
X66217Y-39576D01*
X66217Y-39578D01*
X66217Y-39578D01*
G37*
G36*
X66217Y-36949D02*
X65538Y-36949D01*
X65538Y-36270D01*
X66217Y-36270D01*
X66217Y-36949D01*
X66217Y-36949D01*
G37*
G36*
X66754Y-35991D02*
X66320Y-35991D01*
X66320Y-34966D01*
X66754Y-34966D01*
X66754Y-35991D01*
X66754Y-35991D01*
G37*
G36*
X66754Y-41306D02*
X66320Y-41306D01*
X66320Y-40281D01*
X66754Y-40281D01*
X66754Y-41306D01*
X66754Y-41306D01*
G37*
G36*
X67217Y-36578D02*
X67216Y-36651D01*
X67201Y-36719D01*
X67175Y-36777D01*
X67135Y-36834D01*
X67089Y-36878D01*
X67030Y-36915D01*
X66971Y-36938D01*
X66902Y-36950D01*
X66839Y-36949D01*
X66771Y-36934D01*
X66712Y-36908D01*
X66655Y-36869D01*
X66611Y-36823D01*
X66573Y-36764D01*
X66550Y-36705D01*
X66537Y-36637D01*
X66538Y-36573D01*
X66553Y-36505D01*
X66578Y-36447D01*
X66617Y-36389D01*
X66662Y-36345D01*
X66721Y-36307D01*
X66779Y-36283D01*
X66848Y-36270D01*
X66911Y-36270D01*
X66980Y-36284D01*
X67038Y-36309D01*
X67096Y-36348D01*
X67141Y-36393D01*
X67180Y-36451D01*
X67204Y-36509D01*
X67217Y-36576D01*
X67217Y-36578D01*
X67217Y-36578D01*
G37*
G36*
X67217Y-37578D02*
X67216Y-37651D01*
X67201Y-37719D01*
X67175Y-37777D01*
X67135Y-37834D01*
X67089Y-37878D01*
X67030Y-37915D01*
X66971Y-37938D01*
X66902Y-37950D01*
X66839Y-37949D01*
X66771Y-37934D01*
X66712Y-37908D01*
X66655Y-37869D01*
X66611Y-37823D01*
X66573Y-37764D01*
X66550Y-37705D01*
X66537Y-37637D01*
X66538Y-37573D01*
X66553Y-37505D01*
X66578Y-37447D01*
X66617Y-37389D01*
X66662Y-37345D01*
X66721Y-37307D01*
X66779Y-37283D01*
X66848Y-37270D01*
X66911Y-37270D01*
X66980Y-37284D01*
X67038Y-37309D01*
X67096Y-37348D01*
X67141Y-37393D01*
X67180Y-37451D01*
X67204Y-37509D01*
X67217Y-37576D01*
X67217Y-37578D01*
X67217Y-37578D01*
G37*
G36*
X67217Y-38578D02*
X67216Y-38651D01*
X67201Y-38719D01*
X67175Y-38777D01*
X67135Y-38834D01*
X67089Y-38878D01*
X67030Y-38915D01*
X66971Y-38938D01*
X66902Y-38950D01*
X66839Y-38949D01*
X66771Y-38934D01*
X66712Y-38908D01*
X66655Y-38869D01*
X66611Y-38823D01*
X66573Y-38764D01*
X66550Y-38705D01*
X66537Y-38637D01*
X66538Y-38573D01*
X66553Y-38505D01*
X66578Y-38447D01*
X66617Y-38389D01*
X66662Y-38345D01*
X66721Y-38307D01*
X66779Y-38283D01*
X66848Y-38270D01*
X66911Y-38270D01*
X66980Y-38284D01*
X67038Y-38309D01*
X67096Y-38348D01*
X67141Y-38393D01*
X67180Y-38451D01*
X67204Y-38509D01*
X67217Y-38576D01*
X67217Y-38578D01*
X67217Y-38578D01*
G37*
G36*
X67217Y-39578D02*
X67216Y-39651D01*
X67201Y-39719D01*
X67175Y-39777D01*
X67135Y-39834D01*
X67089Y-39878D01*
X67030Y-39915D01*
X66971Y-39938D01*
X66902Y-39950D01*
X66839Y-39949D01*
X66771Y-39934D01*
X66712Y-39908D01*
X66655Y-39869D01*
X66611Y-39823D01*
X66573Y-39764D01*
X66550Y-39705D01*
X66537Y-39637D01*
X66538Y-39573D01*
X66553Y-39505D01*
X66578Y-39447D01*
X66617Y-39389D01*
X66662Y-39345D01*
X66721Y-39307D01*
X66779Y-39283D01*
X66848Y-39270D01*
X66911Y-39270D01*
X66980Y-39284D01*
X67038Y-39309D01*
X67096Y-39348D01*
X67141Y-39393D01*
X67180Y-39451D01*
X67204Y-39509D01*
X67217Y-39576D01*
X67217Y-39578D01*
X67217Y-39578D01*
G37*
G36*
X67344Y-35991D02*
X66911Y-35991D01*
X66911Y-34966D01*
X67344Y-34966D01*
X67344Y-35991D01*
X67344Y-35991D01*
G37*
G36*
X67344Y-41306D02*
X66911Y-41306D01*
X66911Y-40281D01*
X67344Y-40281D01*
X67344Y-41306D01*
X67344Y-41306D01*
G37*
G36*
X67935Y-35991D02*
X67501Y-35991D01*
X67501Y-34966D01*
X67935Y-34966D01*
X67935Y-35991D01*
X67935Y-35991D01*
G37*
G36*
X67935Y-41306D02*
X67501Y-41306D01*
X67501Y-40281D01*
X67935Y-40281D01*
X67935Y-41306D01*
X67935Y-41306D01*
G37*
G36*
X68525Y-35991D02*
X68092Y-35991D01*
X68092Y-34966D01*
X68525Y-34966D01*
X68525Y-35991D01*
X68525Y-35991D01*
G37*
G36*
X68525Y-41306D02*
X68092Y-41306D01*
X68092Y-40281D01*
X68525Y-40281D01*
X68525Y-41306D01*
X68525Y-41306D01*
G37*
G36*
X69094Y-36903D02*
X69093Y-36962D01*
X69081Y-37017D01*
X69060Y-37064D01*
X69027Y-37111D01*
X68990Y-37146D01*
X68942Y-37177D01*
X68894Y-37195D01*
X68838Y-37205D01*
X68787Y-37204D01*
X68731Y-37192D01*
X68685Y-37171D01*
X68638Y-37139D01*
X68602Y-37102D01*
X68571Y-37054D01*
X68552Y-37007D01*
X68542Y-36950D01*
X68543Y-36899D01*
X68555Y-36843D01*
X68575Y-36797D01*
X68607Y-36749D01*
X68643Y-36714D01*
X68692Y-36682D01*
X68738Y-36663D01*
X68795Y-36653D01*
X68846Y-36653D01*
X68902Y-36664D01*
X68949Y-36684D01*
X68996Y-36716D01*
X69032Y-36752D01*
X69064Y-36800D01*
X69083Y-36847D01*
X69084Y-36849D01*
X69093Y-36898D01*
X69094Y-36902D01*
X69094Y-36903D01*
X69094Y-36903D01*
G37*
G36*
X69094Y-37690D02*
X69093Y-37749D01*
X69081Y-37805D01*
X69060Y-37852D01*
X69027Y-37898D01*
X68990Y-37933D01*
X68942Y-37964D01*
X68894Y-37983D01*
X68838Y-37992D01*
X68787Y-37991D01*
X68731Y-37979D01*
X68685Y-37959D01*
X68638Y-37926D01*
X68602Y-37889D01*
X68571Y-37841D01*
X68552Y-37794D01*
X68542Y-37738D01*
X68543Y-37687D01*
X68555Y-37631D01*
X68575Y-37584D01*
X68607Y-37537D01*
X68643Y-37501D01*
X68692Y-37470D01*
X68738Y-37451D01*
X68795Y-37440D01*
X68846Y-37440D01*
X68902Y-37452D01*
X68949Y-37471D01*
X68996Y-37504D01*
X69032Y-37539D01*
X69064Y-37588D01*
X69083Y-37634D01*
X69084Y-37636D01*
X69093Y-37685D01*
X69094Y-37689D01*
X69094Y-37690D01*
X69094Y-37690D01*
G37*
G36*
X69094Y-38478D02*
X69093Y-38537D01*
X69081Y-38592D01*
X69060Y-38639D01*
X69027Y-38686D01*
X68990Y-38721D01*
X68942Y-38751D01*
X68894Y-38770D01*
X68838Y-38780D01*
X68787Y-38779D01*
X68731Y-38766D01*
X68685Y-38746D01*
X68638Y-38713D01*
X68602Y-38677D01*
X68571Y-38629D01*
X68552Y-38581D01*
X68542Y-38525D01*
X68543Y-38474D01*
X68555Y-38418D01*
X68575Y-38371D01*
X68607Y-38324D01*
X68643Y-38289D01*
X68692Y-38257D01*
X68738Y-38238D01*
X68795Y-38227D01*
X68846Y-38228D01*
X68902Y-38239D01*
X68949Y-38259D01*
X68996Y-38291D01*
X69032Y-38327D01*
X69064Y-38375D01*
X69083Y-38422D01*
X69084Y-38423D01*
X69093Y-38473D01*
X69094Y-38476D01*
X69094Y-38478D01*
X69094Y-38478D01*
G37*
G36*
X69094Y-39567D02*
X68542Y-39567D01*
X68542Y-39015D01*
X69094Y-39015D01*
X69094Y-39567D01*
X69094Y-39567D01*
G37*
G36*
X69116Y-35991D02*
X68682Y-35991D01*
X68682Y-34966D01*
X69116Y-34966D01*
X69116Y-35991D01*
X69116Y-35991D01*
G37*
G36*
X69116Y-41306D02*
X68682Y-41306D01*
X68682Y-40281D01*
X69116Y-40281D01*
X69116Y-41306D01*
X69116Y-41306D01*
G37*
G36*
X69707Y-35991D02*
X69273Y-35991D01*
X69273Y-34966D01*
X69707Y-34966D01*
X69707Y-35991D01*
X69707Y-35991D01*
G37*
G36*
X69707Y-41306D02*
X69273Y-41306D01*
X69273Y-40281D01*
X69707Y-40281D01*
X69707Y-41306D01*
X69707Y-41306D01*
G37*
M02*
